<svg width="1215" height="1127" viewBox="0 0 1215 1127" fill="none" xmlns="http://www.w3.org/2000/svg">
<g opacity="0.35" filter="url(#filter0_f_320_32)">
<path d="M-28.5248 -118.149C-21.3405 -140.26 9.94086 -140.26 17.1252 -118.149L40.4371 -46.4023C43.65 -36.5139 52.8648 -29.8189 63.2621 -29.8189H138.701C161.95 -29.8189 171.617 -0.0686197 152.808 13.5968L91.7763 57.9387C83.3648 64.0501 79.845 74.8827 83.0579 84.7711L106.37 156.518C113.554 178.629 88.247 197.016 69.4382 183.35L8.40683 139.008C-0.00473842 132.897 -11.3949 132.897 -19.8064 139.008L-80.8378 183.35C-99.6466 197.016 -124.954 178.629 -117.769 156.518L-94.4575 84.7711C-91.2446 74.8827 -94.7644 64.0501 -103.176 57.9387L-164.207 13.5968C-183.016 -0.0686011 -173.35 -29.8189 -150.101 -29.8189H-74.6617C-64.2645 -29.8189 -55.0497 -36.5139 -51.8367 -46.4023L-28.5248 -118.149Z" fill="#4CA027"/>
</g>
<g opacity="0.4" filter="url(#filter1_f_320_32)">
<path d="M838.762 610.84C845.946 588.729 877.227 588.729 884.412 610.84L925.707 737.933C928.92 747.822 938.135 754.517 948.532 754.517H1082.17C1105.42 754.517 1115.08 784.267 1096.27 797.932L988.16 876.481C979.749 882.592 976.229 893.425 979.442 903.313L1020.74 1030.41C1027.92 1052.52 1002.61 1070.9 983.806 1057.24L875.693 978.691C867.282 972.579 855.892 972.579 847.48 978.691L739.368 1057.24C720.559 1070.9 695.252 1052.52 702.436 1030.41L743.731 903.313C746.944 893.425 743.425 882.592 735.013 876.481L626.901 797.932C608.092 784.267 617.758 754.517 641.007 754.517H774.641C785.039 754.517 794.254 747.822 797.466 737.933L838.762 610.84Z" fill="#8FD077"/>
</g>
<g opacity="0.5" filter="url(#filter2_f_320_32)">
<path d="M910.761 -354.545C917.945 -376.656 949.226 -376.656 956.411 -354.545L1015.62 -172.312C1018.83 -162.424 1028.05 -155.729 1038.45 -155.729H1230.06C1253.31 -155.729 1262.97 -125.979 1244.16 -112.313L1089.15 0.313219C1080.74 6.42458 1077.22 17.2572 1080.43 27.1456L1139.64 209.379C1146.83 231.49 1121.52 249.877 1102.71 236.211L947.692 123.585C939.281 117.474 927.891 117.474 919.479 123.585L764.462 236.211C745.653 249.877 720.346 231.49 727.531 209.379L786.742 27.1456C789.955 17.2573 786.435 6.42458 778.023 0.31322L623.007 -112.313C604.198 -125.978 613.864 -155.729 637.113 -155.729H828.724C839.122 -155.729 848.337 -162.424 851.55 -172.312L910.761 -354.545Z" fill="#7747FF"/>
</g>
<defs>
<filter id="filter0_f_320_32" x="-354.143" y="-314.73" width="696.887" height="682.769" filterUnits="userSpaceOnUse" color-interpolation-filters="sRGB">
<feFlood flood-opacity="0" result="BackgroundImageFix"/>
<feBlend mode="normal" in="SourceGraphic" in2="BackgroundImageFix" result="shape"/>
<feGaussianBlur stdDeviation="89.9986" result="effect1_foregroundBlur_320_32"/>
</filter>
<filter id="filter1_f_320_32" x="436.964" y="414.259" width="849.244" height="827.669" filterUnits="userSpaceOnUse" color-interpolation-filters="sRGB">
<feFlood flood-opacity="0" result="BackgroundImageFix"/>
<feBlend mode="normal" in="SourceGraphic" in2="BackgroundImageFix" result="shape"/>
<feGaussianBlur stdDeviation="89.9986" result="effect1_foregroundBlur_320_32"/>
</filter>
<filter id="filter2_f_320_32" x="433.07" y="-551.126" width="1001.03" height="972.027" filterUnits="userSpaceOnUse" color-interpolation-filters="sRGB">
<feFlood flood-opacity="0" result="BackgroundImageFix"/>
<feBlend mode="normal" in="SourceGraphic" in2="BackgroundImageFix" result="shape"/>
<feGaussianBlur stdDeviation="89.9986" result="effect1_foregroundBlur_320_32"/>
</filter>
</defs>
</svg>
