<svg width="457" height="89" viewBox="0 0 457 89" fill="none" xmlns="http://www.w3.org/2000/svg">
<g clip-path="url(#clip0_1102_28166)">
<path d="M357.171 31.3617H346.363V69.3287H357.171V31.3617ZM357.171 18.8486H346.363V27.2437H357.171V18.8486ZM121.45 18.8486H110.152V69.3287H144.65V59.6506H121.45V18.8486ZM166.977 28.2033C154.951 28.2033 145.433 37.4782 145.433 49.1663C145.433 60.8544 154.951 70.1537 166.977 70.1537C179.001 70.1537 188.599 60.8789 188.599 49.1845C188.599 37.4901 179.075 28.2033 166.977 28.2033ZM166.977 60.1338C160.924 60.1338 156.406 55.5389 156.406 49.1354C156.406 42.7326 160.924 38.1748 166.977 38.1748C173.029 38.1748 177.546 42.8484 177.546 49.136C177.546 55.4231 173.029 60.1338 166.977 60.1338ZM233.93 60.7813C231.992 60.7813 230.299 59.6511 230.299 56.187V40.062H240.606V31.3617H230.299V20.4187H219.49V31.3611H205.295V20.4187H194.487V31.3611H188.599V40.062H194.487V56.3445C194.487 65.455 198.846 70.1349 206.909 70.1349C210.55 70.1424 214.113 69.08 217.155 67.0798L214.098 59.1006C212.568 60.1346 210.779 60.7207 208.933 60.7927C206.995 60.7927 205.301 59.6625 205.301 56.1984V40.0626H219.497V56.345C219.497 65.4555 223.849 70.1355 231.919 70.1355C235.56 70.1417 239.123 69.0794 242.165 67.0804L239.109 59.1012C237.574 60.1346 235.78 60.7167 233.93 60.7813ZM302.266 46.3257C300.616 34.9913 290.73 26.975 279.867 28.5576C277.135 28.9302 274.504 29.8442 272.131 31.2461C269.757 32.648 267.687 34.5096 266.043 36.7217C264.398 38.9338 263.212 41.4519 262.554 44.1281C261.896 46.8044 261.78 49.585 262.211 52.3069C264.125 65.4738 275.453 71.5714 287.105 69.873C292.382 69.1313 297.325 66.8557 301.319 63.3292L296.208 56.2475C293.29 58.7677 289.707 60.3929 285.888 60.9279C280.619 61.6919 275.685 59.7059 273.607 54.4024L302.584 50.1863C302.55 48.8944 302.444 47.6053 302.266 46.3251V46.3257ZM272.409 47.3212C272.714 42.1461 276.223 38.2113 280.851 37.5455C283.202 37.1799 285.606 37.6836 287.613 38.9623C289.62 40.241 291.091 42.207 291.751 44.492L272.409 47.3212ZM419.601 46.3257C417.951 34.9913 408.059 26.975 397.202 28.5576C393.086 29.1177 389.234 30.9019 386.146 33.6786C383.058 36.4553 380.878 40.0959 379.887 44.1275C379.23 46.804 379.113 49.5849 379.546 52.3069C381.46 65.4738 392.782 71.5714 404.44 69.873C409.715 69.1312 414.656 66.8556 418.647 63.3292L413.542 56.2475C410.623 58.7678 407.038 60.393 403.217 60.9279C397.947 61.6919 393.014 59.7059 390.936 54.4024L419.919 50.1863C419.881 48.8946 419.775 47.6057 419.601 46.3251V46.3257ZM389.743 47.3212C390.049 42.1461 393.552 38.2113 398.186 37.5455C400.534 37.1785 402.936 37.6821 404.939 38.9614C406.942 40.2408 408.408 42.2077 409.061 44.492L389.743 47.3212ZM374.918 18.8486H364.109V69.323H374.918V18.8486ZM441.982 44.0893C438.272 43.2826 434.884 42.5552 434.884 40.3011C434.884 38.6083 437.226 37.4782 439.726 37.4782C443.632 37.5401 447.47 38.5064 450.939 40.3011L454.57 32.2357C450.059 29.4779 444.848 28.0779 439.561 28.2033C431.981 28.2033 423.911 32.5598 423.911 40.7831C423.911 48.525 430.446 51.1705 438.436 53.2779C441.903 54.2495 445.375 54.812 445.375 57.2316C445.375 59.6506 441.261 60.6164 438.754 60.6164C434.189 60.705 429.737 59.1916 426.173 56.3393L422.297 64.6551C424.559 66.7506 430.123 70.1537 438.754 70.1537C446.262 70.1537 456.343 66.8482 456.343 56.9258C456.343 48.6836 448.866 45.7141 441.982 44.0893ZM257.321 31.3617H246.512V69.3287H257.321V31.3617ZM257.321 18.8486H246.512V27.2437H257.321V18.8486ZM306.87 69.3287H318.143V48.7019H337.259V39.1275H318.143V28.5086H341.368V18.8486H306.87V69.3287Z" fill="black"/>
<path d="M66.508 0H22.5282C10.0862 0 0 10.0804 0 22.5153V66.4699C0 78.9042 10.0862 88.9846 22.5282 88.9846H66.508C78.9495 88.9846 89.0357 78.9042 89.0357 66.4699V22.5153C89.0357 10.0804 78.9495 0 66.508 0Z" fill="#00DDB3"/>
<path d="M67.6687 19.9304C52.3428 19.9304 46.6635 30.8672 42.0968 39.653L39.113 45.2743C34.278 54.5919 30.6646 60.256 21.3542 60.256C20.776 60.2556 20.2035 60.3692 19.6694 60.5903C19.1353 60.8113 18.65 61.1355 18.2414 61.5442C17.8328 61.9527 17.5087 62.4376 17.2877 62.9712C17.0667 63.5049 16.953 64.0768 16.9531 64.6544C16.9533 65.232 17.0673 65.8039 17.2886 66.3374C17.5099 66.871 17.8343 67.3557 18.2431 67.7639C19.0684 68.5886 20.1871 69.0527 21.3542 69.0544C36.6864 69.0544 42.3656 58.1171 46.9324 49.3318L49.9099 43.7105C54.7512 34.3924 58.3646 28.7289 67.6687 28.7289C68.2474 28.7299 68.8205 28.6168 69.3554 28.396C69.8902 28.1752 70.3762 27.8512 70.7855 27.4424C71.1949 27.0338 71.5196 26.5486 71.7412 26.0145C71.9627 25.4804 72.0768 24.9078 72.0767 24.3296C72.0745 23.1626 71.6091 22.044 70.7827 21.2194C69.9564 20.3948 68.8365 19.9314 67.6687 19.931V19.9304Z" fill="white"/>
</g>
<defs>
<clipPath id="clip0_1102_28166">
<rect width="456.672" height="89" fill="white"/>
</clipPath>
</defs>
</svg>
